<?xml version="1.0" encoding="UTF-8"?>
<svg xmlns="http://www.w3.org/2000/svg" width="60" height="40" viewBox="0 0 60 40">
  <rect width="60" height="40" fill="#002395"/>
  <path d="M0,0 L60,40" stroke="#FFCC00" stroke-width="8"/>
  <path d="M9,6 L11,11 L16,11 L12,14 L14,19 L9,16 L4,19 L6,14 L2,11 L7,11 Z" fill="#FFFFFF"/>
  <path d="M17,12 L19,17 L24,17 L20,20 L22,25 L17,22 L12,25 L14,20 L10,17 L15,17 Z" fill="#FFFFFF"/>
  <path d="M25,18 L27,23 L32,23 L28,26 L30,31 L25,28 L20,31 L22,26 L18,23 L23,23 Z" fill="#FFFFFF"/>
  <path d="M33,24 L35,29 L40,29 L36,32 L38,37 L33,34 L28,37 L30,32 L26,29 L31,29 Z" fill="#FFFFFF"/>
  <path d="M41,30 L43,35 L48,35 L44,38 L46,43 L41,40 L36,43 L38,38 L34,35 L39,35 Z" fill="#FFFFFF"/>
</svg>
